<svg width="213" height="80" viewBox="0 0 213 80" fill="none" xmlns="http://www.w3.org/2000/svg">
<path d="M263.011 65.9629L59.9932 65.9629C45.7968 65.9629 34.2883 77.4714 34.2883 91.6679C34.2883 105.864 45.7968 117.373 59.9932 117.373L263.011 117.373L263.011 65.9629Z" fill="#FFF9E3"/>
<path d="M263.011 15.0479L107.456 15.0479C93.1232 15.0479 81.504 26.667 81.504 41C81.504 55.333 93.1232 66.9521 107.456 66.9521L263.011 66.9521L263.011 15.0479Z" fill="#FFF9E3"/>
<path d="M263.011 -35.373L138.42 -35.373C124.087 -35.373 112.468 -23.7539 112.468 -9.42092C112.468 4.91205 124.087 16.5312 138.42 16.5312L263.011 16.5312L263.011 -35.373Z" fill="#FFF9E3"/>
</svg>